<svg id="map-pin_copy" data-name="map-pin copy" xmlns="http://www.w3.org/2000/svg" xmlns:xlink="http://www.w3.org/1999/xlink" width="10" height="10" viewBox="0 0 10 10">
  <defs>
    <clipPath id="clip-path">
      <path id="Combined_Shape" data-name="Combined Shape" d="M3.472,8.333a.346.346,0,0,1-.193-.058c-.032-.021-.085-.058-.145-.1-.118-.085-.241-.179-.367-.279a10.831,10.831,0,0,1-1.11-1.015A5.1,5.1,0,0,1,0,3.472a3.472,3.472,0,0,1,6.945,0A5.1,5.1,0,0,1,5.287,6.879a10.754,10.754,0,0,1-1.11,1.015c-.126.1-.249.194-.367.279-.072.052-.121.086-.145.1A.346.346,0,0,1,3.472,8.333Zm0-6.25A1.389,1.389,0,1,0,4.861,3.472,1.39,1.39,0,0,0,3.472,2.083Z" transform="translate(0 0)" fill="#fff"/>
    </clipPath>
  </defs>
  <rect id="map-pin_copy_background" data-name="map-pin copy background" width="10" height="10" fill="rgba(0,0,0,0)"/>
  <path id="Combined_Shape-2" data-name="Combined Shape" d="M3.472,8.333a.346.346,0,0,1-.193-.058c-.032-.021-.085-.058-.145-.1-.118-.085-.241-.179-.367-.279a10.831,10.831,0,0,1-1.11-1.015A5.1,5.1,0,0,1,0,3.472a3.472,3.472,0,0,1,6.945,0A5.1,5.1,0,0,1,5.287,6.879a10.754,10.754,0,0,1-1.11,1.015c-.126.1-.249.194-.367.279-.072.052-.121.086-.145.1A.346.346,0,0,1,3.472,8.333Zm0-6.25A1.389,1.389,0,1,0,4.861,3.472,1.39,1.39,0,0,0,3.472,2.083Z" transform="translate(1.528 0.833)" fill="#fff"/>
  <g id="Group_2" data-name="Group 2" transform="translate(1.528 0.833)" clip-path="url(#clip-path)">
    <g id="COLOR_black" data-name="COLOR/ black" transform="translate(-1.528 -0.833)">
      <rect id="COLOR_black_background" data-name="COLOR/ black background" width="10" height="10" fill="rgba(0,0,0,0)"/>
      <rect id="Rectangle" width="10" height="10" fill="#228cff"/>
    </g>
  </g>
</svg>
